<?xml version="1.0" encoding="UTF-8" standalone="no"?>
<!-- Created with Inkscape (http://www.inkscape.org/) -->

<svg
   xmlns:dc="http://purl.org/dc/elements/1.1/"
   xmlns:cc="http://creativecommons.org/ns#"
   xmlns:rdf="http://www.w3.org/1999/02/22-rdf-syntax-ns#"
   xmlns:svg="http://www.w3.org/2000/svg"
   xmlns="http://www.w3.org/2000/svg"
   xmlns:sodipodi="http://sodipodi.sourceforge.net/DTD/sodipodi-0.dtd"
   xmlns:inkscape="http://www.inkscape.org/namespaces/inkscape"
   version="1.1"
   id="svg41927"
   xml:space="preserve"
   width="1066.6667"
   height="1066.6667"
   viewBox="0 0 1066.6667 1066.6667"
   sodipodi:docname="guitarist-color-silhouette-publicdomainvectors.org.svg"
   inkscape:version="0.92.4 (5da689c313, 2019-01-14)"><metadata
     id="metadata41933"><rdf:RDF><cc:Work
         rdf:about=""><dc:format>image/svg+xml</dc:format><dc:type
           rdf:resource="http://purl.org/dc/dcmitype/StillImage" /><dc:title></dc:title></cc:Work></rdf:RDF></metadata><defs
     id="defs41931"><clipPath
       clipPathUnits="userSpaceOnUse"
       id="clipPath41943"><path
         d="M 0,800 H 800 V 0 H 0 Z"
         id="path41941"
         inkscape:connector-curvature="0" /></clipPath></defs><sodipodi:namedview
     pagecolor="#ffffff"
     bordercolor="#666666"
     borderopacity="1"
     objecttolerance="10"
     gridtolerance="10"
     guidetolerance="10"
     inkscape:pageopacity="0"
     inkscape:pageshadow="2"
     inkscape:window-width="797"
     inkscape:window-height="480"
     id="namedview41929"
     showgrid="false"
     inkscape:zoom="0.22124998"
     inkscape:cx="533.33337"
     inkscape:cy="533.33337"
     inkscape:window-x="0"
     inkscape:window-y="0"
     inkscape:window-maximized="0"
     inkscape:current-layer="g41935" /><g
     id="g41935"
     inkscape:groupmode="layer"
     inkscape:label="guitarist-color-silhouette-publicdomainvectors.org"
     transform="matrix(1.3333333,0,0,-1.3333333,0,1066.6667)"><g
       id="g41937"><g
         id="g41939"
         clip-path="url(#clipPath41943)"><path
           d="m 383.104,770.434 c -0.068,0.004 -0.135,0.005 -0.205,0.012 -3.586,0.325 -7.845,-5.336 -12.17,-7.805 -1.523,-0.874 -4.04,-3.891 -6.779,-7.573 l 40.698,-27.185 z"
           style="fill:#0640cc;fill-opacity:1;fill-rule:nonzero;stroke:none"
           id="path41945"
           inkscape:connector-curvature="0" /><path
           d="m 458.368,743.21 c -5.206,8.765 -12.82,20.225 -14.502,22.904 -2.467,3.935 -17.247,6.815 -20.842,7.537 -3.588,0.729 -3.58,0.325 -7.189,1.451 -3.602,1.113 -17.871,-1.564 -22.642,-1.662 -4.686,-0.096 -6.627,-3.199 -10.089,-3.006 l 21.544,-42.551 z"
           style="fill:#006ad4;fill-opacity:1;fill-rule:nonzero;stroke:none"
           id="path41947"
           inkscape:connector-curvature="0" /><path
           d="m 363.95,755.068 c -5.04,-6.772 -10.835,-15.797 -12.6,-17.898 -2.718,-3.236 -8.389,-17.677 -9.5,-21.677 -0.316,-1.137 -0.301,-2.747 -0.144,-4.536 l 62.942,16.926 z"
           style="fill:#5a9ac4;fill-opacity:1;fill-rule:nonzero;stroke:none"
           id="path41949"
           inkscape:connector-curvature="0" /><path
           d="m 404.648,727.883 -62.942,-16.926 c 0.395,-4.51 1.695,-10.15 0.882,-12.16 -1.136,-2.807 -3.912,-3.261 -8.203,-7.333 -3.785,-3.585 -14.073,-7.301 -17.807,-8.434 l 35.135,-31.45 z"
           style="fill:#6fc9cd;fill-opacity:1;fill-rule:nonzero;stroke:none"
           id="path41951"
           inkscape:connector-curvature="0" /><path
           d="m 203.481,574.205 1.459,-1.684 11.51,32.737 c -6.997,-15.883 -12.969,-31.053 -12.969,-31.053"
           style="fill:#c32500;fill-opacity:1;fill-rule:nonzero;stroke:none"
           id="path41953"
           inkscape:connector-curvature="0" /><path
           d="m 316.578,683.03 c -0.501,-0.152 -0.885,-0.258 -1.119,-0.31 -1.98,-0.438 -7.919,-1.746 -13.857,-3.067 -5.946,-1.315 -18.609,-4.761 -28.069,-8.924 -6.319,-2.79 -17.85,-10.645 -27.702,-19.407 l 105.882,0.258 z"
           style="fill:#abc38d;fill-opacity:1;fill-rule:nonzero;stroke:none"
           id="path41955"
           inkscape:connector-curvature="0" /><path
           d="m 351.713,651.58 -105.882,-0.258 c -3.543,-3.15 -6.868,-6.416 -9.655,-9.607 l 29.259,-79.088 z"
           style="fill:#c8c46e;fill-opacity:1;fill-rule:nonzero;stroke:none"
           id="path41957"
           inkscape:connector-curvature="0" /><path
           d="m 463.719,669.763 c 0.725,6.038 1.505,11.999 2.503,14.839 2.257,6.41 1.315,13.563 1.956,21.132 0.525,6.214 -1.993,17.446 -3.857,24.338 l -27.751,-69.05 z"
           style="fill:#0097de;fill-opacity:1;fill-rule:nonzero;stroke:none"
           id="path41959"
           inkscape:connector-curvature="0" /><path
           d="m 436.57,661.022 27.751,69.05 c -0.409,1.511 -0.785,2.817 -1.092,3.813 -0.541,1.755 -2.442,5.249 -4.861,9.325 l -53.72,-15.327 z"
           style="fill:#008cde;fill-opacity:1;fill-rule:nonzero;stroke:none"
           id="path41961"
           inkscape:connector-curvature="0" /><path
           d="m 404.648,727.883 -52.935,-76.303 84.857,9.442 z"
           style="fill:#1ca0e2;fill-opacity:1;fill-rule:nonzero;stroke:none"
           id="path41963"
           inkscape:connector-curvature="0" /><path
           d="m 236.176,641.715 c -1.075,-1.229 -2.072,-2.449 -2.968,-3.646 -4.398,-5.875 -10.933,-19.59 -16.758,-32.811 l -11.51,-32.737 0.579,-0.667 -0.852,-2.652 60.768,-6.575 z"
           style="fill:#ce640e;fill-opacity:1;fill-rule:nonzero;stroke:none"
           id="path41965"
           inkscape:connector-curvature="0" /><path
           d="m 406.426,563.527 -140.991,-0.9 68.91,-63.367 z"
           style="fill:#dae266;fill-opacity:1;fill-rule:nonzero;stroke:none"
           id="path41967"
           inkscape:connector-curvature="0" /><path
           d="m 436.57,661.022 -84.857,-9.442 54.713,-88.053 z"
           style="fill:#76e0e0;fill-opacity:1;fill-rule:nonzero;stroke:none"
           id="path41969"
           inkscape:connector-curvature="0" /><path
           d="m 351.713,651.58 -86.278,-88.953 140.991,0.9 z"
           style="fill:#b1df7d;fill-opacity:1;fill-rule:nonzero;stroke:none"
           id="path41971"
           inkscape:connector-curvature="0" /><path
           d="m 183.208,483.553 c -0.068,-1.589 -0.094,-3.091 -0.065,-4.466 0.259,-12.729 9.46,-15.325 9.46,-15.325 0,0 22.036,-20.136 24.546,-24.011 l 37.128,16.088 z"
           style="fill:#df2300;fill-opacity:1;fill-rule:nonzero;stroke:none"
           id="path41973"
           inkscape:connector-curvature="0" /><path
           d="m 461.822,655.771 c 0.665,3.365 1.26,8.708 1.897,13.992 l -27.149,-8.741 z"
           style="fill:#009be2;fill-opacity:1;fill-rule:nonzero;stroke:none"
           id="path41975"
           inkscape:connector-curvature="0" /><path
           d="m 445.497,611.391 2.725,-0.364 6.383,-0.665 c 0,0 0.341,2.791 -2.504,5.518 -2.839,2.725 -0.853,2.766 -3.392,10.278 -2.54,7.504 2.571,10.399 4.893,13.629 2.326,3.228 5.384,9.654 7.3,12.876 0.327,0.545 0.631,1.638 0.92,3.108 l -25.252,5.251 z"
           style="fill:#1ab6ec;fill-opacity:1;fill-rule:nonzero;stroke:none"
           id="path41977"
           inkscape:connector-curvature="0" /><path
           d="m 204.323,568.132 -2.918,-9.096 -2.904,-13.98 c 0,0 -9.005,-26.446 -10.166,-28.067 -1.035,-1.434 -4.561,-20.336 -5.127,-33.436 l 71.069,-27.714 z"
           style="fill:#dc2b00;fill-opacity:1;fill-rule:nonzero;stroke:none"
           id="path41979"
           inkscape:connector-curvature="0" /><path
           d="m 265.435,562.627 -60.768,6.575 -0.344,-1.07 49.954,-112.293 z"
           style="fill:#df5f00;fill-opacity:1;fill-rule:nonzero;stroke:none"
           id="path41981"
           inkscape:connector-curvature="0" /><path
           d="m 406.426,563.527 20.022,-11.233 c -0.089,1.421 -0.155,2.869 -0.18,4.176 -0.09,4.38 0.696,4.794 2.221,8.007 1.526,3.212 1.113,4 3.02,8.023 1.905,4.016 0.679,5.581 0.997,9.571 0.316,3.971 1.874,5.606 2.93,12.389 1.054,6.784 0.072,15.91 0.072,15.91 0,0 3.432,7.236 3.464,5.652 0.035,-1.603 4.067,-4.304 4.067,-4.304 l 2.458,-0.327 -8.927,49.631 z"
           style="fill:#6bd7ef;fill-opacity:1;fill-rule:nonzero;stroke:none"
           id="path41983"
           inkscape:connector-curvature="0" /><path
           d="M 265.435,562.627 254.277,455.839 334.345,499.26 Z"
           style="fill:#e88202;fill-opacity:1;fill-rule:nonzero;stroke:none"
           id="path41985"
           inkscape:connector-curvature="0" /><path
           d="m 412.216,483.144 -5.79,80.383 -72.081,-64.267 z"
           style="fill:#dcf07e;fill-opacity:1;fill-rule:nonzero;stroke:none"
           id="path41987"
           inkscape:connector-curvature="0" /><path
           d="m 568.267,525.236 8.329,4.643 -4.799,21.669 -13.959,-8.322 -39.693,-24.294 30.055,-7.601 z"
           style="fill:#35bfed;fill-opacity:1;fill-rule:nonzero;stroke:none"
           id="path41989"
           inkscape:connector-curvature="0" /><path
           d="m 660.798,582.333 c -1.235,2.368 -8.726,3.699 -8.726,3.699 0,0 -0.912,1.189 -3.346,2.923 -1.104,0.79 -2.11,-0.153 -2.878,-1.411 l 16.246,-8.615 c -0.26,1.18 -0.709,2.295 -1.296,3.404"
           style="fill:#0069d5;fill-opacity:1;fill-rule:nonzero;stroke:none"
           id="path41991"
           inkscape:connector-curvature="0" /><path
           d="m 592.164,538.556 c 0,0 16.289,6.007 17.477,6.322 1.185,0.317 17.537,3.348 20.798,4.303 3.261,0.967 10.802,11.866 12.255,13.679 1.461,1.826 3.871,0.683 6.275,-0.163 2.402,-0.846 6.521,1.916 10.971,3.505 4.435,1.587 1.679,5.403 2.214,8.403 0.282,1.584 0.232,2.995 -0.06,4.324 l -16.246,8.615 c -0.918,-1.502 -1.498,-3.458 -1.498,-3.458 l -6.531,-1.916 c 0,0 -1.234,2.062 -3.048,3.219 -1.813,1.156 -1.089,-5.1 -1.089,-5.1 l -6.226,-2.208 c 0,0 -0.65,2.665 -2.457,3.522 -1.809,0.858 -2.593,-4.832 -2.593,-4.832 l -5.915,-2.501 c 0,0 -1.534,2.058 -4.228,2.606 -2.703,0.534 -3.196,-4.248 -3.196,-4.248 l -4.74,-1.887 c 0,0 -1.849,2.952 -4.248,3.493 -2.398,0.548 -1.984,-4.814 -1.984,-4.814 0,0 -5.044,-1.599 -5.355,-1.003 -0.308,0.583 -7.199,1.636 -7.199,1.636 l -1.119,-3.602 -3.466,-5.638 -3.064,-5.632 -6.095,-3.633 4.799,-21.669 z"
           style="fill:#0783dd;fill-opacity:1;fill-rule:nonzero;stroke:none"
           id="path41993"
           inkscape:connector-curvature="0" /><path
           d="m 540.305,505.86 7.895,5.471 -30.055,7.601 -19.242,-11.774 21.698,-14.641 z"
           style="fill:#8debdb;fill-opacity:1;fill-rule:nonzero;stroke:none"
           id="path41995"
           inkscape:connector-curvature="0" /><path
           d="m 334.345,499.26 -80.068,-43.421 81.869,-7.346 z"
           style="fill:#f38800;fill-opacity:1;fill-rule:nonzero;stroke:none"
           id="path41997"
           inkscape:connector-curvature="0" /><path
           d="m 412.216,483.144 1.337,1.434 c 0.278,3.356 0.707,6.781 0.888,7.586 0.365,1.605 2.165,10.795 2.505,13.983 0.333,3.196 3.464,25.532 3.464,25.532 l 6.741,0.939 c 0,0 0.713,3.992 1.073,5.988 0.356,1.989 -0.504,5.161 -0.926,6.346 -0.296,0.834 -0.64,4.01 -0.85,7.342 l -20.022,11.233 z"
           style="fill:#b9f3bd;fill-opacity:1;fill-rule:nonzero;stroke:none"
           id="path41999"
           inkscape:connector-curvature="0" /><path
           d="m 221.762,412.523 c 0.062,-0.354 0.118,-0.714 0.159,-1.085 0.487,-4.366 -0.252,-7.165 -0.227,-8.358 0.025,-1.199 -1.898,-4.426 -4.949,-10.851 -1.379,-2.908 -1.741,-7.909 -1.722,-12.516 l 69.177,37.803 z"
           style="fill:#ef3500;fill-opacity:1;fill-rule:nonzero;stroke:none"
           id="path42001"
           inkscape:connector-curvature="0" /><path
           d="m 254.277,455.839 -37.128,-16.088 c 0.17,-0.263 0.251,-0.452 0.229,-0.554 -0.365,-1.591 1.842,-12.291 1.923,-16.28 0.074,-3.637 1.796,-6.572 2.461,-10.394 l 62.438,4.993 z"
           style="fill:#f43900;fill-opacity:1;fill-rule:nonzero;stroke:none"
           id="path42003"
           inkscape:connector-curvature="0" /><path
           d="m 254.277,455.839 29.923,-38.323 51.946,30.977 z"
           style="fill:#f77700;fill-opacity:1;fill-rule:nonzero;stroke:none"
           id="path42005"
           inkscape:connector-curvature="0" /><path
           d="m 336.146,448.493 76.07,34.651 -77.871,16.116 z"
           style="fill:#f2da4e;fill-opacity:1;fill-rule:nonzero;stroke:none"
           id="path42007"
           inkscape:connector-curvature="0" /><path
           d="m 284.2,417.516 -69.177,-37.803 c 0.023,-5.581 0.602,-10.581 0.602,-10.581 l 3.027,-11.878 -0.844,-17.119 c 0,0 3.27,-4.309 4.876,-5.071 1.607,-0.763 6.456,-4.243 7.659,-5.021 0.732,-0.46 2.79,-2.339 4.31,-3.761 l 56.321,-12.784 z"
           style="fill:#fb6100;fill-opacity:1;fill-rule:nonzero;stroke:none"
           id="path42009"
           inkscape:connector-curvature="0" /><path
           d="m 413.36,481.772 c 0.046,0.888 0.114,1.843 0.193,2.806 l -1.337,-1.434 z"
           style="fill:#d8f892;fill-opacity:1;fill-rule:nonzero;stroke:none"
           id="path42011"
           inkscape:connector-curvature="0" /><path
           d="m 468.03,436.051 c 0,0 0.717,-0.12 1.798,-0.304 l -5.992,56.642 c -0.243,-3.787 -0.315,-6.781 -0.315,-6.781 l -34.178,-21.392 -1.587,0.319 29.495,-35.324 c 4.954,2.973 10.779,6.84 10.779,6.84"
           style="fill:#d8f892;fill-opacity:1;fill-rule:nonzero;stroke:none"
           id="path42013"
           inkscape:connector-curvature="0" /><path
           d="m 480.007,433.909 c 0.907,-0.279 5.683,-0.48 8.052,0.463 2.367,0.944 0.492,5.081 0.164,6.572 -0.33,1.478 -0.458,7.74 0.158,6.863 0.612,-0.881 2.342,2.137 3.503,3.646 1.164,1.521 2.86,6.03 2.86,6.03 0,0 3.215,3.645 3.787,4.849 0.572,1.212 3.218,3.055 4.964,5.172 1.747,2.132 -1.612,5.933 -1.612,5.933 l -3.372,4.122 22.09,14.958 -21.698,14.641 -6.299,-3.855 -16.12,-9.482 -0.162,7.956 c 0,0 -1.719,6.336 -2.937,7.511 -1.217,1.168 -4.811,1.492 -7.122,-2.134 -1.367,-2.149 -2.076,-9.287 -2.427,-14.765 l 5.992,-56.642 c 3.175,-0.539 9.512,-1.629 10.179,-1.838"
           style="fill:#c7f5c3;fill-opacity:1;fill-rule:nonzero;stroke:none"
           id="path42015"
           inkscape:connector-curvature="0" /><path
           d="m 235.729,319.806 c 0.429,-1.576 4.073,-4.691 6.099,-6.24 2.021,-1.542 4.019,-2.702 5.623,-2.669 1.584,0.034 1.503,4.008 2.734,2.443 1.226,-1.567 5.257,-4.267 7.699,-7.001 1.595,-1.789 3.367,-3.914 5.088,-6.047 l 28.002,13.206 -56.321,12.784 c 1.003,-0.936 1.773,-1.677 1.773,-1.677 0,0 -1.128,-3.21 -0.697,-4.799"
           style="fill:#f55a00;fill-opacity:1;fill-rule:nonzero;stroke:none"
           id="path42017"
           inkscape:connector-curvature="0" /><path
           d="m 359.751,332.766 96.365,66.911 c -2.359,0.974 -6.192,1.018 -8.251,0.752 -2.684,-0.361 -13.947,-3.871 -15.737,-3.907 l -15.808,-0.323 c -6.269,-0.127 -8.179,5.799 -8.179,5.799 l 1.277,10.771 17.037,10.892 -90.309,24.832 z"
           style="fill:#ffd200;fill-opacity:1;fill-rule:nonzero;stroke:none"
           id="path42019"
           inkscape:connector-curvature="0" /><path
           d="m 336.146,448.493 90.309,-24.832 4.171,2.666 c 0,0 17.915,-0.523 20.008,-0.481 0.799,0.016 3.541,1.518 6.617,3.365 l -29.495,35.324 -2.008,0.403 -6.863,5.031 c 0,0 -4.511,6.285 -5.33,7.453 -0.287,0.418 -0.304,2.179 -0.195,4.35 l -1.144,1.372 z"
           style="fill:#f9ed33;fill-opacity:1;fill-rule:nonzero;stroke:none"
           id="path42021"
           inkscape:connector-curvature="0" /><path
           d="M 336.146,448.493 284.2,417.516 359.751,332.766 Z"
           style="fill:#fd9d00;fill-opacity:1;fill-rule:nonzero;stroke:none"
           id="path42023"
           inkscape:connector-curvature="0" /><path
           d="m 284.2,417.516 6.774,-104.018 68.777,19.268 z"
           style="fill:#ff9300;fill-opacity:1;fill-rule:nonzero;stroke:none"
           id="path42025"
           inkscape:connector-curvature="0" /><path
           d="m 445.595,316.777 -33.243,25.325 c 0,0 -7.948,9.09 -8.544,9.079 -0.598,-0.013 0,0 4.74,1.588 4.753,1.588 38.27,11.226 40.618,13.065 2.351,1.83 7.594,8.208 7.594,8.208 0,0 2.228,7.814 2.796,9.616 0.558,1.802 1.392,4.497 1.325,7.781 -0.067,3.288 -1.589,5.04 -3.127,7.097 -0.355,0.476 -0.93,0.851 -1.638,1.141 l -96.365,-66.911 z"
           style="fill:#ffcf00;fill-opacity:1;fill-rule:nonzero;stroke:none"
           id="path42027"
           inkscape:connector-curvature="0" /><path
           d="m 262.972,300.292 c 0.912,-1.132 1.811,-2.264 2.661,-3.348 2.45,-3.131 6.075,-5.051 9.306,-7.771 3.244,-2.718 7.64,-3.424 10.845,-4.551 3.204,-1.134 7.244,-4.229 9.24,-4.593 1.996,-0.361 7.221,-3.04 8.811,-3.008 1.335,0.029 8.389,-5.427 11.345,-7.874 l -24.206,44.351 z"
           style="fill:#fb6800;fill-opacity:1;fill-rule:nonzero;stroke:none"
           id="path42029"
           inkscape:connector-curvature="0" /><path
           d="m 324.333,252.374 c 0.713,-3.459 1.925,-8.768 2.525,-11.48 0.193,-0.873 0.55,-2.171 0.996,-3.694 l 5.79,-1.884 z"
           style="fill:#fb6800;fill-opacity:1;fill-rule:nonzero;stroke:none"
           id="path42031"
           inkscape:connector-curvature="0" /><path
           d="m 433.014,231.814 40.736,63.421 c -2.155,1.892 -6.84,5.302 -6.84,5.302 l -21.315,16.24 -85.844,15.989 z"
           style="fill:#feb200;fill-opacity:1;fill-rule:nonzero;stroke:none"
           id="path42033"
           inkscape:connector-curvature="0" /><path
           d="m 327.854,237.2 c 0.384,-1.302 0.833,-2.772 1.304,-4.287 l 4.486,2.403 z"
           style="fill:#f35c00;fill-opacity:1;fill-rule:nonzero;stroke:none"
           id="path42035"
           inkscape:connector-curvature="0" /><path
           d="m 359.751,332.766 -68.777,-19.268 24.206,-44.351 c 0.565,-0.467 0.983,-0.829 1.18,-1.017 1.217,-1.17 6.92,-7.814 6.92,-7.814 0,0 0.471,-3.577 0.495,-4.77 0.007,-0.374 0.23,-1.577 0.558,-3.172 l 9.311,-17.058 z"
           style="fill:#ff8500;fill-opacity:1;fill-rule:nonzero;stroke:none"
           id="path42037"
           inkscape:connector-curvature="0" /><path
           d="m 433.014,231.814 -73.263,100.952 -26.107,-97.45 z"
           style="fill:#fe9400;fill-opacity:1;fill-rule:nonzero;stroke:none"
           id="path42039"
           inkscape:connector-curvature="0" /><path
           d="m 329.158,232.913 c 0.692,-2.225 1.43,-4.543 2.071,-6.574 l 2.415,8.977 z"
           style="fill:#f04f00;fill-opacity:1;fill-rule:nonzero;stroke:none"
           id="path42041"
           inkscape:connector-curvature="0" /><path
           d="m 333.644,235.316 -2.415,-8.977 c 0.727,-2.3 1.331,-4.229 1.6,-5.222 0.861,-3.17 2.969,-9.086 4.236,-12.641 1.273,-3.564 1.354,-7.541 1.807,-10.316 0.461,-2.773 -0.633,-7.967 -0.951,-11.554 -0.338,-3.6 1.324,-6.746 2.558,-8.71 1.233,-1.963 0.927,-6.743 0.56,-7.943 -0.374,-1.2 -2.182,-10.387 -2.887,-14.781 -0.706,-4.39 0.6,-9.939 1.452,-12.704 0.853,-2.767 0.94,-6.742 0.568,-8.342 -0.365,-1.605 -1.436,-7.599 -2.191,-9.595 -0.754,-2.004 -0.218,-8.756 -0.186,-10.353 0.018,-0.847 -0.913,-5.225 -1.84,-9.309 l 42.347,17.485 z"
           style="fill:#f64e00;fill-opacity:1;fill-rule:nonzero;stroke:none"
           id="path42043"
           inkscape:connector-curvature="0" /><path
           d="m 478.573,221.261 c 1.093,3.79 2.365,8.019 2.866,10.842 0.713,3.992 2.559,35.365 2.779,39.544 0.206,4.181 -1.953,8.021 -2.934,11.877 -0.972,3.859 -6.164,9.716 -6.479,10.606 -0.069,0.19 -0.468,0.594 -1.055,1.105 l -40.736,-63.421 z"
           style="fill:#ffa300;fill-opacity:1;fill-rule:nonzero;stroke:none"
           id="path42045"
           inkscape:connector-curvature="0" /><path
           d="m 378.302,122.354 54.712,109.46 -99.37,3.502 z"
           style="fill:#fd7700;fill-opacity:1;fill-rule:nonzero;stroke:none"
           id="path42047"
           inkscape:connector-curvature="0" /><path
           d="m 466.795,167.293 c 0.453,3.354 1.204,6.295 1.499,7.238 0.374,1.207 2.802,18.371 3.488,23.948 0.683,5.587 4.488,14.016 5.59,18.42 0.324,1.289 0.748,2.789 1.201,4.362 l -45.559,10.553 z"
           style="fill:#ff8800;fill-opacity:1;fill-rule:nonzero;stroke:none"
           id="path42049"
           inkscape:connector-curvature="0" /><path
           d="m 378.302,122.354 87.085,32.35 c 0.56,4.36 1.009,8.221 1.122,9.842 0.064,0.925 0.166,1.85 0.286,2.747 l -33.781,64.521 z"
           style="fill:#fd7400;fill-opacity:1;fill-rule:nonzero;stroke:none"
           id="path42051"
           inkscape:connector-curvature="0" /><path
           d="m 462.478,104.49 0.075,0.289 -0.462,3.171 c -0.464,3.173 -0.593,9.547 -1.024,11.129 -0.43,1.583 0.892,14.74 1.632,17.54 0.465,1.766 1.735,10.654 2.688,18.085 l -87.085,-32.35 z"
           style="fill:#fa6200;fill-opacity:1;fill-rule:nonzero;stroke:none"
           id="path42053"
           inkscape:connector-curvature="0" /><path
           d="m 335.955,104.869 c -0.811,-3.568 -1.621,-6.916 -1.795,-7.48 l 40.854,0.062 3.288,24.903 z"
           style="fill:#f03600;fill-opacity:1;fill-rule:nonzero;stroke:none"
           id="path42055"
           inkscape:connector-curvature="0" /><path
           d="m 375.014,97.451 85.696,0.132 1.768,6.907 -84.176,17.864 z"
           style="fill:#f64d00;fill-opacity:1;fill-rule:nonzero;stroke:none"
           id="path42057"
           inkscape:connector-curvature="0" /></g></g></g></svg>